<svg xmlns="http://www.w3.org/2000/svg" viewBox="0 0 64 64" fill="none">
  <defs>
    <linearGradient id="a" x1="13" y1="5" x2="48" y2="56" gradientUnits="userSpaceOnUse"><stop stop-color="#50efff"/><stop offset=".46" stop-color="#00baff"/><stop offset="1" stop-color="#1764ef"/></linearGradient>
    <linearGradient id="b" x1="48" y1="18" x2="21" y2="57" gradientUnits="userSpaceOnUse"><stop stop-color="#71efff"/><stop offset="1" stop-color="#1466f6"/></linearGradient>
  </defs>
  <path d="M52 8C43 4 28 4 20 9 9 15 5 26 10 32c4 5 12 5 22 3l8-2c5-1 7 1 5 4-3 4-9 5-17 5l-9 10c-2 2-2 4 1 5 12 3 25-1 32-8 9-9 10-22 1-27-6-4-14-3-23-1l-8 2c-4 1-5-1-2-4 4-4 12-4 21-3 5 0 9-2 11-5 1-1 1-2 0-3Z" fill="url(#a)"/>
  <path d="M29 21c13-2 27-3 29 9 1 13-10 25-25 27 9-5 15-12 14-19-1-7-9-7-18-5l-9 2c-9 1-12-2-12-6 3 4 10 2 17 0l10-3c4-1 3-4-6-5Z" fill="url(#b)" opacity=".8"/>
</svg>
